<svg width="114" height="114" viewBox="0 0 114 114" fill="none" xmlns="http://www.w3.org/2000/svg">
<path d="M0.881296 47.0155C3.24995 33.7023 10.2745 21.6647 20.7002 13.0532C31.1259 4.44161 44.2736 -0.182954 57.7947 0.00555911C71.3157 0.19408 84.3293 5.1834 94.5109 14.0823C104.692 22.9811 111.379 35.2099 113.375 48.584L57 57L0.881296 47.0155Z" fill="white"/>
<circle cx="56.6133" cy="56.7318" r="44.9512" fill="#08AFDD"/>
<path d="M51.0193 53.0135C50.0166 53.0135 49.1526 52.8482 48.4273 52.5175C47.7019 52.1868 47.1366 51.7015 46.7313 51.0615C46.3366 50.4215 46.1179 49.6268 46.0753 48.6775C46.0646 48.2402 46.0593 47.7708 46.0593 47.2695C46.0593 46.7682 46.0646 46.2882 46.0753 45.8295C46.1179 44.9015 46.3419 44.1122 46.7473 43.4615C47.1526 42.8108 47.7179 42.3202 48.4433 41.9895C49.1686 41.6588 50.0273 41.4935 51.0193 41.4935C51.7233 41.4935 52.3739 41.5842 52.9713 41.7655C53.5686 41.9362 54.0913 42.1922 54.5393 42.5335C54.9873 42.8642 55.3339 43.2695 55.5793 43.7495C55.8353 44.2188 55.9686 44.7522 55.9793 45.3495C55.9899 45.4455 55.9579 45.5255 55.8833 45.5895C55.8193 45.6535 55.7393 45.6855 55.6433 45.6855H53.4833C53.3446 45.6855 53.2379 45.6588 53.1633 45.6055C53.0886 45.5415 53.0246 45.4295 52.9713 45.2695C52.8219 44.7042 52.5766 44.3202 52.2353 44.1175C51.9046 43.9042 51.4939 43.7975 51.0033 43.7975C50.4166 43.7975 49.9526 43.9628 49.6113 44.2935C49.2699 44.6135 49.0833 45.1522 49.0513 45.9095C49.0193 46.7842 49.0193 47.6802 49.0513 48.5975C49.0833 49.3548 49.2699 49.8988 49.6113 50.2295C49.9526 50.5495 50.4166 50.7095 51.0033 50.7095C51.4939 50.7095 51.9099 50.6028 52.2513 50.3895C52.5926 50.1762 52.8326 49.7922 52.9713 49.2375C53.0139 49.0775 53.0726 48.9708 53.1473 48.9175C53.2326 48.8535 53.3446 48.8215 53.4833 48.8215H55.6433C55.7393 48.8215 55.8193 48.8535 55.8833 48.9175C55.9579 48.9815 55.9899 49.0615 55.9793 49.1575C55.9686 49.7548 55.8353 50.2935 55.5793 50.7735C55.3339 51.2428 54.9873 51.6482 54.5393 51.9895C54.0913 52.3202 53.5686 52.5762 52.9713 52.7575C52.3739 52.9282 51.7233 53.0135 51.0193 53.0135ZM62.2376 53.0135C61.2563 53.0135 60.403 52.8535 59.6776 52.5335C58.9523 52.2135 58.387 51.7335 57.9816 51.0935C57.5763 50.4428 57.3523 49.6322 57.3096 48.6615C57.299 48.2028 57.2936 47.7442 57.2936 47.2855C57.2936 46.8162 57.299 46.3522 57.3096 45.8935C57.3523 44.9335 57.5763 44.1282 57.9816 43.4775C58.3976 42.8162 58.9683 42.3202 59.6936 41.9895C60.4296 41.6588 61.2776 41.4935 62.2376 41.4935C63.2083 41.4935 64.0563 41.6588 64.7816 41.9895C65.507 42.3202 66.0776 42.8162 66.4936 43.4775C66.9096 44.1282 67.1336 44.9335 67.1656 45.8935C67.187 46.3522 67.1976 46.8162 67.1976 47.2855C67.1976 47.7442 67.187 48.2028 67.1656 48.6615C67.1336 49.6322 66.9096 50.4428 66.4936 51.0935C66.0883 51.7335 65.523 52.2135 64.7976 52.5335C64.0723 52.8535 63.219 53.0135 62.2376 53.0135ZM62.2376 50.7095C62.803 50.7095 63.2616 50.5388 63.6136 50.1975C63.9763 49.8562 64.1683 49.3122 64.1896 48.5655C64.211 48.0962 64.2216 47.6535 64.2216 47.2375C64.2216 46.8215 64.211 46.3895 64.1896 45.9415C64.1683 45.4402 64.0723 45.0348 63.9016 44.7255C63.7416 44.4055 63.5176 44.1708 63.2296 44.0215C62.9416 43.8722 62.611 43.7975 62.2376 43.7975C61.875 43.7975 61.5496 43.8722 61.2616 44.0215C60.9736 44.1708 60.7443 44.4055 60.5736 44.7255C60.403 45.0348 60.307 45.4402 60.2856 45.9415C60.275 46.3895 60.2696 46.8215 60.2696 47.2375C60.2696 47.6535 60.275 48.0962 60.2856 48.5655C60.3176 49.3122 60.5096 49.8562 60.8616 50.1975C61.2243 50.5388 61.683 50.7095 62.2376 50.7095ZM44.9682 71.0135C44.1469 71.0135 43.4375 70.9175 42.8402 70.7255C42.2535 70.5228 41.7735 70.2668 41.4002 69.9575C41.0269 69.6375 40.7495 69.3015 40.5682 68.9495C40.3869 68.5868 40.2909 68.2402 40.2802 67.9095C40.2802 67.8135 40.3122 67.7335 40.3762 67.6695C40.4509 67.6055 40.5362 67.5735 40.6322 67.5735H42.7282C42.8455 67.5735 42.9415 67.6002 43.0162 67.6535C43.0909 67.6962 43.1602 67.7708 43.2242 67.8775C43.3095 68.0802 43.4322 68.2455 43.5922 68.3735C43.7629 68.5015 43.9655 68.5922 44.2002 68.6455C44.4349 68.6882 44.6909 68.7095 44.9682 68.7095C45.5122 68.7095 45.9335 68.5868 46.2322 68.3415C46.5415 68.0855 46.6962 67.7388 46.6962 67.3015C46.6962 66.8428 46.5522 66.5175 46.2642 66.3255C45.9762 66.1228 45.5655 66.0215 45.0322 66.0215H43.2562C43.1389 66.0215 43.0429 65.9842 42.9682 65.9095C42.8935 65.8348 42.8562 65.7388 42.8562 65.6215V64.7255C42.8562 64.5975 42.8829 64.4855 42.9362 64.3895C42.9895 64.2935 43.0482 64.2242 43.1122 64.1815L45.7362 61.9575H41.2882C41.1815 61.9575 41.0855 61.9202 41.0002 61.8455C40.9255 61.7708 40.8882 61.6748 40.8882 61.5575V60.0535C40.8882 59.9362 40.9255 59.8402 41.0002 59.7655C41.0855 59.6908 41.1815 59.6535 41.2882 59.6535H48.6482C48.7655 59.6535 48.8615 59.6908 48.9362 59.7655C49.0215 59.8402 49.0642 59.9362 49.0642 60.0535V61.4135C49.0642 61.5308 49.0375 61.6375 48.9842 61.7335C48.9309 61.8188 48.8722 61.8882 48.8082 61.9415L46.3762 64.1975L46.4882 64.2295C47.1069 64.3042 47.6509 64.4642 48.1202 64.7095C48.6002 64.9548 48.9789 65.3068 49.2562 65.7655C49.5335 66.2135 49.6722 66.7842 49.6722 67.4775C49.6722 68.2028 49.4642 68.8322 49.0482 69.3655C48.6429 69.8882 48.0882 70.2935 47.3842 70.5815C46.6802 70.8695 45.8749 71.0135 44.9682 71.0135ZM53.0991 70.8535C53.0031 70.8535 52.9231 70.8215 52.8591 70.7575C52.7951 70.6828 52.7631 70.5975 52.7631 70.5015C52.7631 70.4482 52.7684 70.4055 52.7791 70.3735C52.8004 70.3415 52.8164 70.3148 52.8271 70.2935L55.0831 67.2055C54.9337 67.2375 54.7791 67.2535 54.6191 67.2535C54.1391 67.2215 53.6697 67.1148 53.2111 66.9335C52.7524 66.7415 52.3364 66.4855 51.9631 66.1655C51.6004 65.8348 51.3124 65.4455 51.0991 64.9975C50.8857 64.5495 50.7791 64.0482 50.7791 63.4935C50.7791 62.9815 50.8751 62.4908 51.0671 62.0215C51.2591 61.5415 51.5471 61.1148 51.9311 60.7415C52.3151 60.3575 52.7897 60.0535 53.3551 59.8295C53.9311 59.6055 54.5977 59.4935 55.3551 59.4935C56.1231 59.4935 56.7951 59.5948 57.3711 59.7975C57.9577 59.9895 58.4484 60.2668 58.8431 60.6295C59.2377 60.9815 59.5364 61.3975 59.7391 61.8775C59.9417 62.3468 60.0431 62.8482 60.0431 63.3815C60.0431 63.8722 59.9524 64.3255 59.7711 64.7415C59.6004 65.1575 59.3871 65.5522 59.1311 65.9255C58.8857 66.2882 58.6297 66.6562 58.3631 67.0295L55.8031 70.5335C55.7604 70.5868 55.6964 70.6562 55.6111 70.7415C55.5257 70.8162 55.3977 70.8535 55.2271 70.8535H53.0991ZM55.3871 65.1415C55.7071 65.1415 55.9951 65.0775 56.2511 64.9495C56.5071 64.8108 56.7097 64.6188 56.8591 64.3735C57.0084 64.1282 57.0831 63.8295 57.0831 63.4775C57.0831 63.1255 57.0084 62.8268 56.8591 62.5815C56.7097 62.3255 56.5071 62.1335 56.2511 62.0055C55.9951 61.8668 55.7071 61.7975 55.3871 61.7975C55.0777 61.7975 54.7951 61.8668 54.5391 62.0055C54.2831 62.1335 54.0804 62.3255 53.9311 62.5815C53.7817 62.8268 53.7071 63.1255 53.7071 63.4775C53.7071 63.8295 53.7817 64.1282 53.9311 64.3735C54.0804 64.6188 54.2831 64.8108 54.5391 64.9495C54.7951 65.0775 55.0777 65.1415 55.3871 65.1415ZM62.3571 70.8535C62.1117 70.8535 61.9891 70.7468 61.9891 70.5335C61.9891 70.4695 62.0104 70.4108 62.0531 70.3575L69.9571 59.9575C70.0317 59.8615 70.1064 59.7868 70.1811 59.7335C70.2557 59.6802 70.3677 59.6535 70.5171 59.6535H71.6531C71.8984 59.6535 72.0211 59.7602 72.0211 59.9735C72.0211 60.0375 71.9997 60.0962 71.9571 60.1495L64.0531 70.5495C63.9784 70.6455 63.9037 70.7202 63.8291 70.7735C63.7544 70.8268 63.6424 70.8535 63.4931 70.8535H62.3571ZM70.4051 70.9335C69.6797 70.9335 69.0984 70.7415 68.6611 70.3575C68.2344 69.9735 67.9944 69.4615 67.9411 68.8215C67.9304 68.5442 67.9251 68.2988 67.9251 68.0855C67.9251 67.8722 67.9304 67.6162 67.9411 67.3175C67.9837 66.6668 68.2131 66.1495 68.6291 65.7655C69.0557 65.3708 69.6477 65.1735 70.4051 65.1735C71.1731 65.1735 71.7651 65.3708 72.1811 65.7655C72.5971 66.1495 72.8264 66.6668 72.8691 67.3175C72.8904 67.6162 72.9011 67.8722 72.9011 68.0855C72.9011 68.2988 72.8904 68.5442 72.8691 68.8215C72.8264 69.4615 72.5864 69.9735 72.1491 70.3575C71.7117 70.7415 71.1304 70.9335 70.4051 70.9335ZM70.4051 69.5255C70.5864 69.5255 70.7251 69.4882 70.8211 69.4135C70.9277 69.3282 71.0077 69.2268 71.0611 69.1095C71.1144 68.9815 71.1464 68.8535 71.1571 68.7255C71.1784 68.4802 71.1891 68.2562 71.1891 68.0535C71.1891 67.8508 71.1784 67.6322 71.1571 67.3975C71.1464 67.1948 71.0824 67.0135 70.9651 66.8535C70.8584 66.6828 70.6717 66.5975 70.4051 66.5975C70.1491 66.5975 69.9624 66.6828 69.8451 66.8535C69.7384 67.0135 69.6797 67.1948 69.6691 67.3975C69.6584 67.6322 69.6531 67.8508 69.6531 68.0535C69.6531 68.2562 69.6584 68.4802 69.6691 68.7255C69.6797 68.8535 69.7064 68.9815 69.7491 69.1095C69.8024 69.2268 69.8824 69.3282 69.9891 69.4135C70.0957 69.4882 70.2344 69.5255 70.4051 69.5255ZM63.6371 65.3015C62.9011 65.3015 62.3144 65.1148 61.8771 64.7415C61.4504 64.3575 61.2157 63.8455 61.1731 63.2055C61.1517 62.9282 61.1411 62.6828 61.1411 62.4695C61.1517 62.2562 61.1624 62.0002 61.1731 61.7015C61.2051 61.0615 61.4291 60.5495 61.8451 60.1655C62.2717 59.7708 62.8691 59.5735 63.6371 59.5735C64.4051 59.5735 64.9971 59.7708 65.4131 60.1655C65.8291 60.5495 66.0531 61.0615 66.0851 61.7015C66.1064 62.0002 66.1171 62.2562 66.1171 62.4695C66.1171 62.6828 66.1064 62.9282 66.0851 63.2055C66.0531 63.8455 65.8184 64.3575 65.3811 64.7415C64.9437 65.1148 64.3624 65.3015 63.6371 65.3015ZM63.6371 63.9095C63.8077 63.9095 63.9464 63.8722 64.0531 63.7975C64.1597 63.7228 64.2397 63.6268 64.2931 63.5095C64.3464 63.3815 64.3731 63.2535 64.3731 63.1255C64.3944 62.8802 64.4051 62.6562 64.4051 62.4535C64.4051 62.2508 64.3944 62.0322 64.3731 61.7975C64.3624 61.5948 64.2984 61.4135 64.1811 61.2535C64.0744 61.0828 63.8931 60.9975 63.6371 60.9975C63.3704 60.9975 63.1837 61.0828 63.0771 61.2535C62.9704 61.4135 62.9064 61.5948 62.8851 61.7975C62.8744 62.0322 62.8691 62.2508 62.8691 62.4535C62.8691 62.6562 62.8744 62.8802 62.8851 63.1255C62.9064 63.2535 62.9384 63.3815 62.9811 63.5095C63.0237 63.6268 63.0984 63.7228 63.2051 63.7975C63.3117 63.8722 63.4557 63.9095 63.6371 63.9095Z" fill="white"/>
</svg>
